{
    "asset": {
        "version": "2.0",
        "generator": "Open Asset Import Library (assimp v5.2.cf7d3637)"
    },
    "extensionsUsed": [
        "KHR_materials_volume",
        "FB_ngon_encoding"
    ],
    "accessors": [
        {
            "bufferView": 0,
            "byteOffset": 0,
            "componentType": 5126,
            "count": 3648,
            "type": "VEC3",
            "max": [
                0.29346320033073428,
                0.019999999552965165,
                0.5488175749778748
            ],
            "min": [
                -0.32378482818603518,
                -0.019999999552965165,
                -0.15297478437423707
            ]
        },
        {
            "bufferView": 1,
            "byteOffset": 0,
            "componentType": 5126,
            "count": 3648,
            "type": "VEC3",
            "max": [
                0.9999997615814209,
                1.0,
                0.9999033808708191
            ],
            "min": [
                -0.9999990463256836,
                -1.0,
                -0.9999788999557495
            ]
        },
        {
            "bufferView": 2,
            "byteOffset": 0,
            "componentType": 5126,
            "count": 3648,
            "type": "VEC2",
            "max": [
                1.0,
                1.0
            ],
            "min": [
                0.0,
                0.0
            ]
        },
        {
            "bufferView": 3,
            "byteOffset": 0,
            "componentType": 5125,
            "count": 3648,
            "type": "SCALAR",
            "max": [
                3647
            ],
            "min": [
                0
            ]
        },
        {
            "bufferView": 4,
            "byteOffset": 0,
            "componentType": 5126,
            "count": 864,
            "type": "VEC3",
            "max": [
                0.12591761350631715,
                0.029999999329447748,
                0.42747798562049868
            ],
            "min": [
                -0.09097746014595032,
                -0.029999999329447748,
                -0.1915360987186432
            ]
        },
        {
            "bufferView": 5,
            "byteOffset": 0,
            "componentType": 5126,
            "count": 864,
            "type": "VEC3",
            "max": [
                0.9893137812614441,
                1.0,
                0.7626765370368958
            ],
            "min": [
                -0.9988085627555847,
                -1.0,
                -0.9972659349441528
            ]
        },
        {
            "bufferView": 6,
            "byteOffset": 0,
            "componentType": 5126,
            "count": 864,
            "type": "VEC2",
            "max": [
                1.0,
                1.0
            ],
            "min": [
                0.0,
                0.0
            ]
        },
        {
            "bufferView": 7,
            "byteOffset": 0,
            "componentType": 5125,
            "count": 864,
            "type": "SCALAR",
            "max": [
                863
            ],
            "min": [
                0
            ]
        },
        {
            "bufferView": 8,
            "byteOffset": 0,
            "componentType": 5126,
            "count": 1584,
            "type": "VEC3",
            "max": [
                0.11496996879577637,
                0.04999999701976776,
                0.17925244569778443
            ],
            "min": [
                -0.11704900860786438,
                -0.04999999701976776,
                -0.1767507791519165
            ]
        },
        {
            "bufferView": 9,
            "byteOffset": 0,
            "componentType": 5126,
            "count": 1584,
            "type": "VEC3",
            "max": [
                0.9997979998588562,
                1.0,
                0.9999814033508301
            ],
            "min": [
                -0.9999231100082398,
                -1.0,
                -0.9999808073043823
            ]
        },
        {
            "bufferView": 10,
            "byteOffset": 0,
            "componentType": 5126,
            "count": 1584,
            "type": "VEC2",
            "max": [
                1.0,
                1.0
            ],
            "min": [
                0.0,
                0.0
            ]
        },
        {
            "bufferView": 11,
            "byteOffset": 0,
            "componentType": 5125,
            "count": 1584,
            "type": "SCALAR",
            "max": [
                1583
            ],
            "min": [
                0
            ]
        }
    ],
    "buffers": [
        {
            "byteLength": 219456,
            "uri": "result.bin"
        }
    ],
    "bufferViews": [
        {
            "buffer": 0,
            "byteOffset": 0,
            "byteLength": 43776,
            "target": 34962
        },
        {
            "buffer": 0,
            "byteOffset": 43776,
            "byteLength": 43776,
            "target": 34962
        },
        {
            "buffer": 0,
            "byteOffset": 87552,
            "byteLength": 29184,
            "target": 34962
        },
        {
            "buffer": 0,
            "byteOffset": 116736,
            "byteLength": 14592,
            "target": 34963
        },
        {
            "buffer": 0,
            "byteOffset": 131328,
            "byteLength": 10368,
            "target": 34962
        },
        {
            "buffer": 0,
            "byteOffset": 141696,
            "byteLength": 10368,
            "target": 34962
        },
        {
            "buffer": 0,
            "byteOffset": 152064,
            "byteLength": 6912,
            "target": 34962
        },
        {
            "buffer": 0,
            "byteOffset": 158976,
            "byteLength": 3456,
            "target": 34963
        },
        {
            "buffer": 0,
            "byteOffset": 162432,
            "byteLength": 19008,
            "target": 34962
        },
        {
            "buffer": 0,
            "byteOffset": 181440,
            "byteLength": 19008,
            "target": 34962
        },
        {
            "buffer": 0,
            "byteOffset": 200448,
            "byteLength": 12672,
            "target": 34962
        },
        {
            "buffer": 0,
            "byteOffset": 213120,
            "byteLength": 6336,
            "target": 34963
        }
    ],
    "materials": [
        {
            "name": "SVGMat.001",
            "pbrMetallicRoughness": {
                "baseColorFactor": [
                    0.30054378509521487,
                    0.520995557308197,
                    0.061246052384376529,
                    1.0
                ],
                "metallicFactor": 0.0,
                "roughnessFactor": 0.4000000059604645
            },
            "doubleSided": true
        },
        {
            "name": "SVGMat.002",
            "pbrMetallicRoughness": {
                "baseColorFactor": [
                    0.1119324266910553,
                    0.27049779891967776,
                    0.04817182570695877,
                    1.0
                ],
                "metallicFactor": 0.0,
                "roughnessFactor": 0.4000000059604645
            },
            "doubleSided": true
        },
        {
            "name": "SVGMat.003",
            "pbrMetallicRoughness": {
                "metallicFactor": 0.0,
                "roughnessFactor": 0.4000000059604645
            },
            "doubleSided": true
        },
        {
            "name": "material"
        }
    ],
    "meshes": [
        {
            "name": "Curve",
            "primitives": [
                {
                    "mode": 4,
                    "material": 0,
                    "indices": 3,
                    "attributes": {
                        "POSITION": 0,
                        "NORMAL": 1,
                        "TEXCOORD_0": 2
                    }
                }
            ]
        },
        {
            "name": "Curve.001",
            "primitives": [
                {
                    "mode": 4,
                    "material": 1,
                    "indices": 7,
                    "attributes": {
                        "POSITION": 4,
                        "NORMAL": 5,
                        "TEXCOORD_0": 6
                    }
                }
            ]
        },
        {
            "name": "Curve.002",
            "primitives": [
                {
                    "mode": 4,
                    "material": 2,
                    "indices": 11,
                    "attributes": {
                        "POSITION": 8,
                        "NORMAL": 9,
                        "TEXCOORD_0": 10
                    }
                }
            ]
        }
    ],
    "nodes": [
        {
            "name": "ROOT",
            "children": [
                1,
                2,
                3
            ]
        },
        {
            "name": "Curve",
            "matrix": [
                2.9807522296905519,
                0.3274087607860565,
                -5.914842128753662,
                0.0,
                5.904943466186523,
                0.3650209903717041,
                2.9959700107574465,
                0.0,
                0.4734863340854645,
                -6.613396167755127,
                -0.12746544182300569,
                0.0,
                0.06817609071731568,
                3.351332902908325,
                -0.13884487748146058,
                1.0
            ],
            "mesh": 0
        },
        {
            "name": "Curve.001",
            "matrix": [
                2.9807522296905519,
                0.3274087607860565,
                -5.914842128753662,
                0.0,
                5.904943466186523,
                0.3650209903717041,
                2.9959700107574465,
                0.0,
                0.4734863340854645,
                -6.613396167755127,
                -0.12746544182300569,
                0.0,
                0.6523444056510925,
                2.623241424560547,
                -1.160762071609497,
                1.0
            ],
            "mesh": 1
        },
        {
            "name": "Curve.002",
            "matrix": [
                2.9807522296905519,
                0.3274087607860565,
                -5.914842128753662,
                0.0,
                5.904943466186523,
                0.3650209903717041,
                2.9959700107574465,
                0.0,
                0.4734863340854645,
                -6.613396167755127,
                -0.12746544182300569,
                0.0,
                0.022613883018493654,
                1.5682237148284913,
                0.4902915358543396,
                1.0
            ],
            "mesh": 2
        }
    ],
    "scenes": [
        {
            "nodes": [
                0
            ]
        }
    ],
    "scene": 0
}